<?xml version="1.0" standalone="no"?><!DOCTYPE svg PUBLIC "-//W3C//DTD SVG 1.1//EN" "http://www.w3.org/Graphics/SVG/1.1/DTD/svg11.dtd"><svg t="1713713965151" class="icon" viewBox="0 0 1024 1024" version="1.1" xmlns="http://www.w3.org/2000/svg" p-id="91662" xmlns:xlink="http://www.w3.org/1999/xlink" width="200" height="200"><path d="M12.487805 12.487805m199.804878 0l599.414634 0q199.804878 0 199.804878 199.804878l0 599.414634q0 199.804878-199.804878 199.804878l-599.414634 0q-199.804878 0-199.804878-199.804878l0-599.414634q0-199.804878 199.804878-199.804878Z" fill="#45465A" p-id="91663"></path><path d="M811.707317 1024h-599.414634A212.542439 212.542439 0 0 1 0 811.707317v-599.414634A212.542439 212.542439 0 0 1 212.292683 0h599.414634A212.542439 212.542439 0 0 1 1024 212.292683v599.414634a212.542439 212.542439 0 0 1-212.292683 212.292683zM212.292683 24.97561A187.516878 187.516878 0 0 0 24.97561 212.292683v599.414634A187.516878 187.516878 0 0 0 212.292683 999.02439h599.414634a187.516878 187.516878 0 0 0 187.317073-187.317073v-599.414634A187.516878 187.516878 0 0 0 811.707317 24.97561z" fill="#6FA4FF" p-id="91664"></path><path d="M476.884293 559.203902l126.301658-132.695414a8.866341 8.866341 0 0 1 11.338927-1.498537 9.465756 9.465756 0 0 1 3.621463 11.164098l-55.645658 176.927219a51.524683 51.524683 0 0 1-11.438829 19.206244 50.101073 50.101073 0 0 1-72.429269 1.82322 54.321951 54.321951 0 0 1-1.748292-74.92683z m-289.092683 9.066147A325.23239 325.23239 0 0 1 507.50439 237.767805a325.23239 325.23239 0 0 1 319.687805 330.477268c0 82.044878-36.814049 146.382049-84.642341 204.125659-2.147902 2.497561-4.395707 4.995122-6.593561 7.492683a27.473171 27.473171 0 0 1-17.333073 6.318829 29.321366 29.321366 0 0 1-18.656781-51.025171c39.561366-47.753366 71.380293-99.10322 71.380293-166.862049A268.437854 268.437854 0 0 0 507.50439 295.486439 268.462829 268.462829 0 0 0 243.612098 568.270049a245.010732 245.010732 0 0 0 60.740682 167.786146 29.621073 29.621073 0 0 1 8.092098 20.405073 28.796878 28.796878 0 0 1-28.27239 29.271415 27.298341 27.298341 0 0 1-16.084293-5.219903c-2.797268-3.146927-5.619512-6.218927-8.316878-9.465756a302.754341 302.754341 0 0 1-72.004683-202.776975z" fill="#6FA4FF" p-id="91665"></path></svg>