<?xml version="1.0" standalone="no"?><!DOCTYPE svg PUBLIC "-//W3C//DTD SVG 1.1//EN" "http://www.w3.org/Graphics/SVG/1.1/DTD/svg11.dtd"><svg t="1713713763833" class="icon" viewBox="0 0 1043 1024" version="1.1" xmlns="http://www.w3.org/2000/svg" p-id="68832" xmlns:xlink="http://www.w3.org/1999/xlink" width="203.7109375" height="200"><path d="M511.422947 480.984463m-440.659136 0a440.659136 440.659136 0 1 0 881.318272 0 440.659136 440.659136 0 1 0-881.318272 0Z" fill="#70C4FF" p-id="68833"></path><path d="M511.422947 938.74147c-252.40731 0-457.757007-205.349697-457.757007-457.761281 0-252.40731 205.349697-457.757007 457.757007-457.757007s457.752732 205.349697 457.752732 457.757007c0 252.411584-205.345422 457.761281-457.752732 457.761281z m0-881.318273c-233.552634 0-423.561266 190.008632-423.561266 423.561266 0 233.556908 190.008632 423.56554 423.561266 423.565541 233.548359 0 423.556992-190.008632 423.556991-423.565541 0-233.552634-190.008632-423.561266-423.556991-423.561266z" fill="#6E6E96" p-id="68834"></path><path d="M505.584024 54.944006s-44.086859 249.009108 51.883488 267.167047c95.966071 18.157938 137.475426-7.775257 186.755762 41.500805 49.271788 49.284611 160.018968 32.216662 163.408621-18.157938 0.004274 0.004274-67.434-251.60371-402.047871-290.509914zM232.825974 811.430728s101.783622 15.486396 195.270502-23.518121c99.009492-41.295631 188.700645-140.317947 138.2833-258.100901-79.295648-185.21268-155.975322-87.216236-129.067548-232.616525 26.903499-145.400289-57.628372-203.340697-116.594652-203.340697-58.96628 0-316.284953 384.458437-87.891602 717.576244z" fill="#A3D9FF" opacity=".26" p-id="68835"></path><path d="M211.453636 803.46312s88.306226 14.640051 169.418522-22.23578c85.903975-39.05581 163.724931-132.692297 119.975756-244.042177-68.810379-175.129211-135.338192-82.463028-111.99105-219.938454 23.342867-137.475426-50.006996-192.265551-101.163824-192.265552-51.156828-0.008549-274.407995 363.509271-76.239404 678.481963z" fill="#A3D9FF" opacity=".26" p-id="68836"></path><path d="M228.307862 143.335721c139.950343 21.470651 89.532998 141.01896 128.990608 280.798324 25.604061 90.682829 64.26662 77.43198 98.894081 144.686452 52.887987 69.926015-202.323373 303.487197-339.157629 108.374851C-18.598208 342.307912 228.307862 143.335721 228.307862 143.335721z" fill="#9EE3C3" p-id="68837"></path><path d="M251.907197 770.374467c-59.145808 0-110.623221-28.827009-148.871156-83.360667l-1.119911-1.594376-0.730934-1.803826c-72.430853-178.839449-37.119476-319.734449 5.26187-406.437748 45.916331-93.939974 108.490261-145.024136 111.131882-147.152821l5.868844-4.727561 7.450397 1.145557c110.276989 16.918343 116.821199 90.422087 124.39983 175.531011 3.180204 35.713177 6.78358 76.192384 18.452876 117.522211 13.515866 47.865488 30.160643 63.159533 49.429943 80.868652 14.922166 13.712492 31.802039 29.228809 47.587648 59.432197 13.451749 18.991459 12.750737 45.685509-2.026098 75.401608-32.340622 65.006103-124.4383 135.175762-216.835191 135.175763z m-119.762032-101.424567c31.844783 44.612618 72.127366 67.228826 119.762032 67.228826 83.783839 0 161.980949-67.493843 186.221454-116.214224 8.903716-17.897196 10.51519-32.776617 4.428349-40.82544l-0.889089-1.175478-0.675366-1.312262c-13.178184-25.591237-26.664129-37.987193-40.9494-51.109809-21.167163-19.448827-43.052437-39.564472-59.201375-96.756848-12.537013-44.407444-16.289996-86.575066-19.602709-123.780032-7.091342-79.658978-11.468396-128.738414-87.818936-143.434033-15.862549 14.422054-62.099465 60.163131-96.889356 131.944265-56.294738 116.137284-57.765155 242.447801-4.385604 375.435035z" fill="#6E6E96" p-id="68838"></path><path d="M548.901479 41.928252s-69.036926 235.30944 82.668202 235.30944c154.14585 0 183.054074 139.548543 279.460416 17.850177-102.80522-247.658377-362.128618-253.159616-362.128618-253.159617z" fill="#9EE3C3" p-id="68839"></path><path d="M836.483382 362.004659c-25.257829 0-47.373924-12.413054-72.982259-26.783814-34.144447-19.162438-72.849751-40.885282-131.931442-40.885283-38.542874 0-68.169209-13.473122-88.066855-40.043212-53.076064-70.88777-12.750737-211.235638-11.006754-217.177148l3.680317-12.558386 13.088419 0.277841c2.778404 0.059843 68.977083 1.825198 148.717276 35.016438 73.849976 30.737696 173.496364 95.363371 228.837896 228.67974l3.85557 9.288418-6.244998 7.882119c-30.840284 38.936125-57.970329 56.303287-87.94717 56.303287z m-274.664462-302.003958c-10.463897 43.620942-22.795736 131.29882 9.083243 173.825498 13.267947 17.709119 33.1143 26.313622 60.667518 26.313623 68.023877 0 112.739082 25.095399 148.665982 45.262337 22.308446 12.519916 39.927802 22.406759 56.247719 22.406759 10.690443 0 27.711373-3.872668 54.734557-35.533649-86.378441-194.778938-277.400122-227.059717-329.399019-232.274568z" fill="#6E6E96" p-id="68840"></path><path d="M736.995149 859.569782s-99.295882-158.758 0-224.901112c99.304431-66.143111 215.082659-62.244797 215.08266-153.684207 0 250.953991-215.082659 378.585318-215.08266 378.585319z" fill="#9EE3C3" p-id="68841"></path><path d="M731.357127 882.797238l-8.856697-14.157036c-1.068617-1.709787-26.36919-42.492482-39.290906-92.426813-18.234879-70.4475-2.910912-124.31434 44.309131-155.770147 36.444111-24.274701 74.649302-39.359297 108.353478-52.669989 65.125788-25.719471 99.116354-41.257161 99.116354-86.784515h34.195741c0 134.829531-60.693165 234.552859-111.610623 294.472345-54.986751 64.711165-109.550329 97.457861-111.845718 98.817141l-14.37076 8.519014z m195.509872-321.200591c-21.778412 15.597532-49.741979 26.642756-78.440754 37.978645-32.122624 12.68662-68.532539 27.061654-101.954601 49.323081-67.784507 45.151201-23.851529 147.187016-3.603376 186.127416 40.453561-28.963792 152.825039-121.411977 183.998731-273.429142z" fill="#6E6E96" p-id="68842"></path><path d="M507.528907 36.435562c-243.366811 0-440.654862 197.292325-440.654862 440.659136s197.292325 440.654862 440.654862 440.654862c243.371086 0 440.659136-197.288051 440.659136-440.654862S750.899992 36.435562 507.528907 36.435562z m318.311051 490.734523c-15.554787 54.311385-109.434919 37.525551-146.716825 77.91927-30.340171 32.862107-0.983128 125.801855-41.718803 145.451582-46.886635 22.607659-99.449762 35.277181-154.983646 35.277181-61.505314 0 74.986985-112.19195 24.467053-139.561366-17.978411-9.741512-27.202712 43.91588-35.666158-75.260551-3.107538-43.766273-66.083269-64.061445-107.314782-164.267788-10.357035-25.168065-29.70755-202.387491-37.29473-192.261277-46.690009 62.249071-7.783805 257.357143 36.311602 359.247627 27.869529 64.399128-160.852489 176.334611-160.852489 76.273599 0-198.17714-89.451783-81.458528-76.833555-221.349029 17.721943-196.463078 159.916381-357.17451 357.183059-357.17451 83.219609 0 167.841244 23.932744 228.269392 71.823879 28.574816 22.633306 51.738155 50.639617 66.780007 83.984739 26.41621 58.521736-184.725391 20.91497-165.533031 30.515424 39.149848 19.594159 238.805954 92.413989 217.690084 86.677653-275.519356-74.875848-10.523739 63.668194 9.972333 84.172815 34.182917 34.178643-4.795953 67.2331-13.759511 98.530752z" fill="#6E6E96" opacity=".2" p-id="68843"></path><path d="M658.622787 524.434426s-44.091133 36.307328-18.153664 62.249071c25.937469 25.933195 76.504421-24.638031 90.781142-38.914752 14.272447-14.268173 9.318339-60.13321-72.627478-23.334319z" fill="#9EE3C3" p-id="68844"></path><path d="M658.35777 611.06506c-11.570984 0-21.936568-4.248821-29.976841-12.289094-9.190105-9.190105-13.72959-20.602934-13.12689-33.007438 1.355006-28.108899 29.318573-51.917683 32.503051-54.537932l1.773904-1.457594 2.090215-0.940382c22.87695-10.271546 42.492482-15.482122 58.312286-15.482122 28.762892 0 38.807891 16.747364 41.787195 23.949842 5.898765 14.229703 2.44927 31.729373-8.377956 42.556599-21.983587 21.987861-54.70891 51.208121-84.984964 51.208121z m9.527788-72.033327c-6.723737 6.082567-18.051077 18.94444-18.478523 28.420935-0.089764 1.979078 0.230821 4.214625 3.154557 7.142635 1.359281 1.363555 2.872442 2.274017 5.791903 2.274017 7.326437 0 24.967165-5.351633 60.800027-41.184495 0.752306-0.760855 1.692689-3.577729 0.970304-5.304614-0.568504-1.359281-4.005176-2.829698-10.194605-2.829698-7.283693 0-20.419132 2.026098-42.043663 11.48122z" fill="#6E6E96" p-id="68845"></path><path d="M56.559755 499.651063h927.153388l3.889766 514.598876H60.445246z" fill="#FF8F8F" p-id="68846"></path><path d="M56.559755 489.56332h927.153388v36.700578H56.559755zM60.445246 842.715556h927.157663v33.990566H60.445246zM60.445246 666.14585h927.157663v34.080329H60.445246z" fill="#FFFFFF" opacity=".28" p-id="68847"></path><path d="M60.445246 649.047979h927.157663v34.195741H60.445246zM60.445246 825.617686h927.157663v34.19574H60.445246z" fill="#6E6E96" p-id="68848"></path><path d="M230.214274 666.14585h34.195741v176.569706h-34.195741zM769.263105 666.14585h34.195741v176.569706h-34.195741zM533.663002 499.262087l3.898314 166.490511-34.187192 0.8036-3.898314-166.490511zM503.33138 842.715556h34.19574v171.538658h-34.19574z" fill="#6E6E96" p-id="68849"></path><path d="M60.445246 975.0317h927.157663v39.222514H60.445246zM60.445246 801.069418h927.157663v41.641863H60.445246zM60.445246 629.637622h927.157663v36.508228H60.445246z" fill="#6E6E96" opacity=".15" p-id="68850"></path><path d="M983.713143 1023.786277H56.559755a17.09787 17.09787 0 0 1-17.09787-16.969637l-3.89404-514.594601a17.102145 17.102145 0 0 1 17.09787-17.226105h927.157663a17.09787 17.09787 0 0 1 17.09787 16.969636l3.889765 514.598877a17.09787 17.09787 0 0 1-17.09787 17.22183z m-910.183752-34.195741h892.957648l-3.633298-480.403136H69.891819l3.637572 480.403136z" fill="#6E6E96" p-id="68851"></path></svg>