<?xml version="1.0" standalone="no"?><!DOCTYPE svg PUBLIC "-//W3C//DTD SVG 1.1//EN" "http://www.w3.org/Graphics/SVG/1.1/DTD/svg11.dtd"><svg t="1713550313891" class="icon" viewBox="0 0 1024 1024" version="1.1" xmlns="http://www.w3.org/2000/svg" p-id="5245" xmlns:xlink="http://www.w3.org/1999/xlink" width="200" height="200"><path d="M162.816 829.44c-17.408 0-30.72-13.312-30.72-30.72v-89.088c0-17.408 13.312-30.72 30.72-30.72s30.72 13.312 30.72 30.72V798.72c0 16.384-14.336 30.72-30.72 30.72zM303.104 829.44c-17.408 0-30.72-13.312-30.72-30.72v-89.088c0-17.408 13.312-30.72 30.72-30.72s30.72 13.312 30.72 30.72V798.72c0 16.384-14.336 30.72-30.72 30.72zM442.368 829.44c-17.408 0-30.72-13.312-30.72-30.72v-89.088c0-17.408 13.312-30.72 30.72-30.72s30.72 13.312 30.72 30.72V798.72c0 16.384-13.312 30.72-30.72 30.72zM582.656 829.44c-17.408 0-30.72-13.312-30.72-30.72v-89.088c0-17.408 13.312-30.72 30.72-30.72s30.72 13.312 30.72 30.72V798.72c0 16.384-13.312 30.72-30.72 30.72zM722.944 829.44c-17.408 0-30.72-13.312-30.72-30.72v-89.088c0-17.408 13.312-30.72 30.72-30.72s30.72 13.312 30.72 30.72V798.72c0 16.384-14.336 30.72-30.72 30.72zM863.232 829.44c-17.408 0-30.72-13.312-30.72-30.72v-89.088c0-17.408 13.312-30.72 30.72-30.72s30.72 13.312 30.72 30.72V798.72c0 16.384-14.336 30.72-30.72 30.72z" fill="#6462F3" p-id="5246"></path><path d="M842.752 545.792H183.296c-4.096 0-8.192-4.096-8.192-8.192V285.696c0-4.096 4.096-8.192 8.192-8.192h659.456c4.096 0 8.192 4.096 8.192 8.192v251.904c0 4.096-4.096 8.192-8.192 8.192z" fill="#D7D7FF" p-id="5247"></path><path d="M68.608 236.544c0-4.096 4.096-8.192 8.192-8.192h871.424c4.096 0 8.192 4.096 8.192 8.192v130.048c13.312-11.264 30.72-18.432 49.152-20.48V236.544c0-31.744-25.6-57.344-57.344-57.344H76.8c-30.72 0-56.32 25.6-56.32 57.344v110.592c18.432 2.048 34.816 9.216 49.152 20.48V236.544zM956.416 782.336c0 4.096-4.096 8.192-8.192 8.192H76.8c-4.096 0-8.192-4.096-8.192-8.192V504.832c-13.312 11.264-30.72 18.432-49.152 20.48v257.024c0 31.744 25.6 57.344 57.344 57.344h871.424c31.744 0 57.344-25.6 57.344-57.344V525.312c-18.432-2.048-34.816-9.216-49.152-20.48v277.504z" fill="#6462F3" p-id="5248"></path><path d="M101.376 436.224c0-27.648-12.288-52.224-32.768-68.608v138.24c20.48-17.408 32.768-41.984 32.768-69.632z" fill="#6462F3" p-id="5249"></path><path d="M68.608 366.592c-13.312-11.264-30.72-18.432-49.152-20.48v49.152c18.432 4.096 32.768 20.48 32.768 39.936s-13.312 36.864-31.744 40.96v49.152c18.432-2.048 34.816-9.216 49.152-20.48V366.592zM923.648 436.224c0 27.648 12.288 52.224 32.768 68.608V366.592c-19.456 16.384-32.768 41.984-32.768 69.632zM972.8 436.224c0-19.456 14.336-35.84 32.768-39.936v-49.152c-18.432 2.048-34.816 9.216-49.152 20.48v138.24c13.312 11.264 30.72 18.432 49.152 20.48v-49.152c-18.432-5.12-32.768-21.504-32.768-40.96z" fill="#6462F3" p-id="5250"></path><path d="M934.912 650.24H71.68c-17.408 0-30.72-13.312-30.72-30.72s13.312-30.72 30.72-30.72h863.232c17.408 0 30.72 13.312 30.72 30.72s-13.312 30.72-30.72 30.72z" fill="#6462F3" p-id="5251"></path></svg>