<?xml version="1.0" standalone="no"?><!DOCTYPE svg PUBLIC "-//W3C//DTD SVG 1.1//EN" "http://www.w3.org/Graphics/SVG/1.1/DTD/svg11.dtd"><svg t="1713551652621" class="icon" viewBox="0 0 1024 1024" version="1.1" xmlns="http://www.w3.org/2000/svg" p-id="22839" xmlns:xlink="http://www.w3.org/1999/xlink" width="200" height="200"><path d="M400.896 1024c-33.792 0-61.44-27.648-61.44-61.44V435.2c0-14.336-11.264-25.6-25.6-25.6H31.744c-22.016 0-33.792-26.112-18.944-42.496L321.024 20.48c11.776-13.312 28.16-20.48 46.08-20.48h33.792c33.792 0 61.44 27.648 61.44 61.44v901.12c0 33.792-27.648 61.44-61.44 61.44zM625.152 0c33.792 0 61.44 27.648 61.44 61.44v527.36c0 14.336 11.264 25.6 25.6 25.6h282.624c22.016 0 33.792 26.112 18.944 42.496L705.024 1003.52c-11.776 13.312-28.16 20.48-46.08 20.48h-33.792c-33.792 0-61.44-27.648-61.44-61.44V61.44c0-33.792 27.648-61.44 61.44-61.44z" fill="#8FC31F" p-id="22840"></path></svg>