<?xml version="1.0" standalone="no"?><!DOCTYPE svg PUBLIC "-//W3C//DTD SVG 1.1//EN" "http://www.w3.org/Graphics/SVG/1.1/DTD/svg11.dtd"><svg t="1713551242875" class="icon" viewBox="0 0 1024 1024" version="1.1" xmlns="http://www.w3.org/2000/svg" p-id="11531" xmlns:xlink="http://www.w3.org/1999/xlink" width="200" height="200"><path d="M0.001575 953.107692a70.892308 70.892308 0 0 0 63.015385 70.892308h897.969231a70.892308 70.892308 0 0 0 63.015384-70.892308V708.923077H0.001575z m630.153847-133.907692a31.507692 31.507692 0 0 1 31.507692-31.507692h173.292308a31.507692 31.507692 0 0 1 31.507692 31.507692v15.753846a31.507692 31.507692 0 0 1-31.507692 31.507692H661.663114a31.507692 31.507692 0 0 1-31.507692-31.507692z m189.046153-732.553846C795.570806 31.507692 795.570806 0 764.063114 0H259.940037c-31.507692 0-31.507692 31.507692-55.138462 86.646154L0.001575 630.153846h1024z" fill="#9790B9" p-id="11532"></path></svg>