<?xml version="1.0" standalone="no"?><!DOCTYPE svg PUBLIC "-//W3C//DTD SVG 1.1//EN" "http://www.w3.org/Graphics/SVG/1.1/DTD/svg11.dtd"><svg t="1713713417362" class="icon" viewBox="0 0 1024 1024" version="1.1" xmlns="http://www.w3.org/2000/svg" p-id="40499" xmlns:xlink="http://www.w3.org/1999/xlink" width="200" height="200"><path d="M861.364706 108.423529H162.635294c-48.188235 0-84.329412 36.141176-84.329412 84.329412v433.694118c0 48.188235 36.141176 84.329412 84.329412 84.329412h692.705882c48.188235 0 84.329412-36.141176 84.329412-84.329412V192.752941c6.023529-42.164706-30.117647-84.329412-78.305882-84.329412zM397.552941 518.023529h-36.141176L325.270588 361.411765l-42.164706 156.611764h-36.141176l-60.235294-210.823529h36.141176l42.164706 156.611765 42.164706-156.611765h36.141176l42.164706 156.611765 42.164706-156.611765h36.141177L397.552941 518.023529z m240.941177 0H481.882353V307.2H632.470588v30.117647H518.023529v60.235294h108.42353V421.647059H518.023529v60.235294h120.470589v36.141176z m180.705882-12.047058c-12.047059 6.023529-30.117647 12.047059-54.211765 12.047058h-96.37647V307.2h96.37647c18.070588 0 36.141176 6.023529 48.188236 12.047059 12.047059 12.047059 18.070588 24.094118 18.070588 36.141176v12.047059c0 6.023529-6.023529 12.047059-6.02353 18.070588-6.023529 6.023529-12.047059 12.047059-24.094117 18.070589 6.023529 0 12.047059 0 12.047059 6.023529 0 0 6.023529 0 6.023529 6.023529 6.023529 0 6.023529 6.023529 12.047059 6.02353 6.023529 6.023529 12.047059 18.070588 12.047059 36.141176-6.023529 24.094118-12.047059 36.141176-24.094118 48.188236z" fill="#9A87FF" p-id="40500"></path><path d="M789.082353 385.505882c6.023529-6.023529 12.047059-12.047059 12.047059-24.094117 0-6.023529 0-12.047059-6.02353-18.070589-6.023529-6.023529-18.070588-6.023529-30.117647-6.023529h-54.211764v60.235294h54.211764c6.023529 0 18.070588-6.023529 24.094118-12.047059zM758.964706 421.647059h-60.235294v66.258823h54.211764c12.047059 0 24.094118 0 30.117648-6.023529 12.047059-6.023529 12.047059-12.047059 12.047058-24.094118s-6.023529-18.070588-12.047058-24.094117c6.023529-6.023529-6.023529-12.047059-24.094118-12.047059zM891.482353 771.011765H132.517647c-30.117647 0-54.211765 24.094118-54.211765 54.211764s24.094118 54.211765 54.211765 54.211765h758.964706c30.117647 0 54.211765-24.094118 54.211765-54.211765s-24.094118-54.211765-54.211765-54.211764z" fill="#9A87FF" p-id="40501"></path></svg>